<svg xmlns="http://www.w3.org/2000/svg" data-name="Layer 1" width="620.876" height="425.501"><path d="M485.273 372.578c25.955-19.77 38.352-52.989 30.59-84.679q-.288-1.18-.61-2.357c-5.145-18.81-17.874-36.688-36.426-42.699-15.578-5.046-32.581-1.165-48.832-3.172-31.902-3.94-56.635-29.752-74.038-56.778s-30.777-57.278-53.902-79.605C263.938 66.485 201.76 58.56 154.5 82.518c-47.26 23.955-77.363 77.103-76.08 130.072 1.285 52.97 32.73 103.611 78.396 130.48 16.776 9.87 36.18 16.863 55.49 14.416 16.754-2.123 31.978-11.126 48.654-13.799 26.219-4.202 52.27 7.653 74.948 21.466 22.677 13.814 44.582 30.188 70.351 36.592 25.022 6.219 56.022-11.655 79.014-29.167Z" fill="#f2f2f2"/><path d="M279.906 136.023H21.336a20.364 20.364 0 0 0-20.34 20.34v128.69a20.364 20.364 0 0 0 20.34 20.34h258.57a20.357 20.357 0 0 0 20.34-20.34v-128.69a20.357 20.357 0 0 0-20.34-20.34Z" fill="#fff"/><path d="M279.907 306.396H21.34A21.365 21.365 0 0 1 0 285.056V156.361a21.365 21.365 0 0 1 21.34-21.34h258.567a21.365 21.365 0 0 1 21.34 21.34v128.693a21.365 21.365 0 0 1-21.34 21.34ZM21.34 137.02A19.363 19.363 0 0 0 2 156.361v128.694a19.363 19.363 0 0 0 19.34 19.34h258.567a19.363 19.363 0 0 0 19.34-19.34V156.362a19.363 19.363 0 0 0-19.34-19.34Z" fill="#2f2e41"/><path d="M294.8 333.972H47.013a8.076 8.076 0 1 1 0-16.151h247.789a8.076 8.076 0 0 1 0 16.151Z" fill="#f50057"/><path d="M523.552 229.157H415.5a8.51 8.51 0 0 1-8.5-8.5v-53.78a8.51 8.51 0 0 1 8.5-8.5h108.052a8.51 8.51 0 0 1 8.5 8.5v53.78a8.51 8.51 0 0 1-8.5 8.5Z" fill="#fff"/><path d="M523.552 230.157H415.5a9.51 9.51 0 0 1-9.5-9.5v-53.78a9.51 9.51 0 0 1 9.5-9.5h108.052a9.51 9.51 0 0 1 9.5 9.5v53.78a9.51 9.51 0 0 1-9.5 9.5ZM415.5 159.377a7.508 7.508 0 0 0-7.5 7.5v53.78a7.508 7.508 0 0 0 7.5 7.5h108.052a7.508 7.508 0 0 0 7.5-7.5v-53.78a7.508 7.508 0 0 0-7.5-7.5Z" fill="#2f2e41"/><path d="M483.868 34.484H29.575a1.807 1.807 0 0 1 0-3.613h454.293a1.807 1.807 0 0 1 0 3.613Z" fill="#cacaca"/><ellipse cx="60.499" cy="10.823" rx="10.588" ry="10.823" fill="#3f3d56"/><ellipse cx="97.074" cy="10.823" rx="10.588" ry="10.823" fill="#3f3d56"/><ellipse cx="133.649" cy="10.823" rx="10.588" ry="10.823" fill="#3f3d56"/><path d="M461.847 2.683h-25.981a1.968 1.968 0 0 0 0 3.934h25.98a1.968 1.968 0 0 0 0-3.934ZM461.847 10.067h-25.981a1.968 1.968 0 0 0 0 3.935h25.98a1.968 1.968 0 0 0 0-3.935ZM461.847 17.442h-25.981a1.968 1.968 0 0 0 0 3.934h25.98a1.968 1.968 0 0 0 0-3.934Z" fill="#3f3d56"/><circle cx="531.3" cy="227.786" r="12.372" fill="#3f3d56"/><path d="M530.374 232.73c-.027 0-.053 0-.08-.002a1.618 1.618 0 0 1-1.199-.623l-2.067-2.658a1.619 1.619 0 0 1 .283-2.272l.075-.058a1.618 1.618 0 0 1 2.272.284 1.18 1.18 0 0 0 1.788.087l4.198-4.432a1.621 1.621 0 0 1 2.289-.062l.069.065a1.618 1.618 0 0 1 .061 2.289l-6.515 6.877a1.617 1.617 0 0 1-1.174.505Z" fill="#fff"/><path d="M192.7 284.74a42.83 42.83 0 0 1-4.43 19.04c-.33.68-.68 1.34-1.05 2h-75.17c-.37-.66-.72-1.32-1.05-2a43.071 43.071 0 1 1 81.7-19.04Z" fill="#2f2e41"/><circle cx="150.726" cy="273.832" r="14.719" fill="#fff"/><circle cx="150.726" cy="273.832" r="4.906" fill="#3f3d56"/><path d="M107.859 244.683c-3.478-15.573 7.638-31.31 24.828-35.149s33.945 5.676 37.422 21.25-7.915 21.317-25.105 25.155-33.668 4.318-37.145-11.256Z" fill="#f50057"/><ellipse cx="481.867" cy="545.871" rx="6.594" ry="21.006" transform="rotate(-50.959 88.157 731.063)" fill="#2f2e41"/><ellipse cx="392.867" cy="508.871" rx="6.594" ry="21.006" transform="rotate(-50.959 -.843 694.063)" fill="#2f2e41"/><ellipse cx="807.473" cy="407.616" rx="21.006" ry="6.594" transform="rotate(-14.482 -270.932 1428.474)" fill="#2f2e41"/><ellipse cx="719.473" cy="411.616" rx="21.006" ry="6.594" transform="rotate(-67.434 396.936 509.941)" fill="#2f2e41"/><circle cx="475.798" cy="164.433" r="42.012" fill="#2f2e41"/><path d="m469.676 220.3-12.764.06c-9.342-9.197-7.96-16.58-.106-22.867l12.763-.06c-5.884 7.245-7.452 14.766.107 22.868Z" fill="#2f2e41"/><ellipse cx="750.208" cy="459.985" rx="10.636" ry="3.989" transform="rotate(-30.266 166.794 876.71)" fill="#2f2e41"/><path d="m492.676 220.3-12.764.06c-9.342-9.197-7.96-16.58-.106-22.867l12.763-.06c-5.884 7.245-7.452 14.766.107 22.868Z" fill="#2f2e41"/><ellipse cx="773.208" cy="459.985" rx="10.636" ry="3.989" transform="rotate(-30.266 189.794 876.71)" fill="#2f2e41"/><circle cx="474.684" cy="153.802" r="14.359" fill="#fff"/><circle cx="474.766" cy="160.709" r="4.786" fill="#3f3d56"/><path d="M516.369 125.173c3.321-15.208-7.594-30.508-24.38-34.175s-33.086 5.69-36.408 20.898 7.818 20.76 24.604 24.426 32.862 4.06 36.184-11.149Z" fill="#f50057"/><path d="M484.288 182.74a9.572 9.572 0 0 1-19.145.139v-.05c-.025-5.286 4.256-6.401 9.543-6.426s9.577 1.05 9.602 6.337Z" fill="#fff"/><path d="M612.8 168.472h-72.788a8.076 8.076 0 1 1 0-16.15h72.789a8.076 8.076 0 0 1 0 16.15Z" fill="#f50057"/><path d="M480.861 389.821a34.68 34.68 0 1 1-34.68-34.68 34.532 34.532 0 0 1 34.68 34.385v.295Z" fill="#fff"/><path d="M446.182 425.5a35.68 35.68 0 1 1 0-71.358h.156a35.532 35.532 0 0 1 35.523 35.38v.3a35.72 35.72 0 0 1-35.679 35.679Zm.15-69.358h-.146a33.68 33.68 0 1 0 33.675 33.68v-.29a33.572 33.572 0 0 0-33.53-33.39Z" fill="#2f2e41"/><path d="M470.299 414.66v.073a34.648 34.648 0 0 1-46.875 1.242 19.959 19.959 0 0 1-.044-1.315 23.46 23.46 0 0 1 46.919-.065v.065Z" fill="#2f2e41"/><circle cx="447.43" cy="408.713" r="8.019" fill="#fff"/><circle cx="447.43" cy="408.713" r="2.673" fill="#3f3d56"/><path d="M424.076 392.833c-1.895-8.485 4.161-17.059 13.527-19.15s18.493 3.092 20.388 11.577-4.312 11.614-13.678 13.705-18.343 2.353-20.237-6.132Z" fill="#f50057"/></svg>