<svg id="svg" version="1.1" xmlns="http://www.w3.org/2000/svg" xmlns:xlink="http://www.w3.org/1999/xlink" width="400" height="400" viewBox="0, 0, 400,400"><g id="svgg"><path id="path0" d="M0.000 200.000 L 0.000 400.000 200.000 400.000 L 400.000 400.000 400.000 200.000 L 400.000 0.000 200.000 0.000 L 0.000 0.000 0.000 200.000 M361.152 17.742 C 361.792 18.514,361.791 381.488,361.150 382.260 C 360.363 383.208,39.277 383.049,38.887 382.100 C 38.511 381.184,38.512 18.815,38.888 17.899 C 39.277 16.951,360.365 16.794,361.152 17.742 M63.067 41.866 C 62.545 42.388,62.756 151.396,63.280 151.920 C 63.631 152.271,66.808 152.400,75.078 152.400 L 86.396 152.400 86.498 108.300 L 86.600 64.200 200.600 64.200 L 314.600 64.200 314.800 108.000 L 315.000 151.800 326.000 151.800 L 337.000 151.800 337.000 96.800 L 337.000 41.800 200.167 41.699 C 124.909 41.644,63.214 41.719,63.067 41.866 M114.984 91.700 C 114.879 91.975,114.840 105.700,114.897 122.200 L 115.000 152.200 125.646 152.306 C 134.219 152.392,136.379 152.307,136.742 151.870 C 137.058 151.489,137.223 145.691,137.296 132.364 L 137.400 113.400 150.372 113.294 L 163.344 113.189 164.472 114.269 L 165.600 115.350 165.600 202.021 L 165.600 288.692 164.771 289.746 L 163.942 290.800 144.764 290.800 L 125.587 290.800 125.693 301.300 L 125.800 311.800 156.099 311.903 L 186.397 312.005 186.499 202.002 C 186.554 141.501,186.540 91.820,186.467 91.600 C 186.252 90.957,115.230 91.057,114.984 91.700 M214.985 91.700 C 214.881 91.975,214.841 141.610,214.898 202.000 L 215.000 311.800 245.400 311.800 L 275.800 311.800 275.800 301.400 L 275.800 291.000 256.517 290.800 C 237.824 290.606,237.216 290.576,236.630 289.800 C 236.095 289.092,236.024 278.971,236.013 201.970 L 236.000 114.939 236.926 114.070 C 238.082 112.983,263.066 112.675,263.947 113.736 C 264.256 114.109,264.424 119.993,264.496 133.036 L 264.600 151.800 275.500 151.906 L 286.400 152.013 286.400 121.606 L 286.400 91.200 250.787 91.200 C 222.665 91.200,215.135 91.305,214.985 91.700 M125.867 337.067 C 125.720 337.213,125.600 342.073,125.600 347.867 L 125.600 358.400 200.800 358.400 L 276.000 358.400 276.000 348.233 C 276.000 342.641,275.891 337.781,275.757 337.433 C 275.504 336.772,126.525 336.408,125.867 337.067 " stroke="none" fill="#fbfbfb" fill-rule="evenodd"></path><path id="path1" d="M39.862 18.331 C 38.778 19.529,38.847 380.757,39.931 381.738 C 40.934 382.645,358.906 382.750,360.100 381.843 C 361.218 380.995,361.186 19.274,360.069 18.262 C 358.871 17.178,40.843 17.247,39.862 18.331 M336.826 41.214 C 337.632 41.645,338.103 152.146,337.300 152.476 C 337.135 152.544,331.960 152.510,325.800 152.400 L 314.600 152.200 314.400 108.400 L 314.200 64.600 200.700 64.499 L 87.200 64.399 87.160 107.899 C 87.138 131.825,86.995 151.850,86.842 152.400 L 86.564 153.400 75.031 153.506 C 66.855 153.582,63.337 153.480,62.948 153.157 C 61.996 152.366,62.145 41.788,63.100 41.232 C 64.085 40.658,335.754 40.640,336.826 41.214 M187.871 91.040 C 188.006 91.393,187.911 91.808,187.660 91.963 C 186.874 92.449,186.815 311.809,187.600 312.324 C 188.073 312.634,188.097 312.825,187.713 313.225 C 187.321 313.635,187.176 313.604,186.970 313.067 C 186.593 312.083,126.001 312.034,125.186 313.017 C 124.812 313.468,124.556 313.515,124.237 313.190 C 123.920 312.868,123.965 312.616,124.400 312.273 C 124.906 311.874,125.000 310.168,125.000 301.400 C 125.000 292.632,124.906 290.926,124.400 290.527 C 123.965 290.184,123.920 289.932,124.237 289.610 C 124.556 289.285,124.812 289.332,125.186 289.783 C 126.093 290.876,163.168 290.697,164.111 289.595 C 165.281 288.229,165.166 115.566,163.994 114.394 C 163.216 113.616,162.759 113.592,150.494 113.694 L 137.800 113.800 137.696 133.164 C 137.624 146.651,137.457 152.690,137.147 153.064 C 136.394 153.971,114.066 153.838,113.715 152.924 C 113.571 152.547,113.665 152.178,113.928 152.091 C 114.285 151.972,114.400 144.511,114.400 121.433 C 114.400 104.658,114.520 90.813,114.667 90.667 C 115.329 90.004,187.615 90.373,187.871 91.040 M287.840 90.907 C 288.009 91.075,287.934 91.426,287.673 91.687 C 286.985 92.375,286.991 151.631,287.680 152.320 C 288.046 152.686,288.049 152.911,287.693 153.267 C 287.337 153.623,287.165 153.575,286.970 153.067 C 286.597 152.094,265.991 152.046,265.186 153.017 C 263.923 154.538,263.801 152.919,263.686 133.180 L 263.571 113.600 250.942 113.600 C 238.393 113.600,238.307 113.606,237.363 114.500 L 236.414 115.400 236.407 201.974 L 236.400 288.548 237.270 289.474 L 238.139 290.400 257.027 290.400 C 274.033 290.400,275.939 290.336,276.162 289.755 C 276.369 289.215,276.513 289.195,277.041 289.634 C 277.616 290.111,277.615 290.199,277.036 290.623 C 276.066 291.332,276.075 311.790,277.045 312.162 C 277.585 312.369,277.605 312.513,277.166 313.041 C 276.689 313.616,276.601 313.615,276.177 313.036 C 275.618 312.272,215.070 312.040,214.600 312.800 C 214.226 313.405,213.600 313.279,213.600 312.600 C 213.600 312.270,213.780 312.000,214.000 312.000 C 214.766 312.000,214.530 92.606,213.764 91.970 C 211.902 90.425,212.959 90.383,251.052 90.494 C 271.117 90.552,287.671 90.738,287.840 90.907 M276.860 336.300 C 277.249 336.689,277.253 336.907,276.880 337.280 C 276.532 337.628,276.400 340.569,276.400 348.000 C 276.400 355.431,276.268 358.372,275.920 358.720 C 275.091 359.549,126.260 359.403,125.429 358.571 C 124.890 358.033,124.800 356.474,124.800 347.651 C 124.800 340.341,124.665 337.225,124.333 336.893 C 123.977 336.537,124.001 336.383,124.433 336.245 C 124.745 336.145,125.270 335.973,125.600 335.862 C 127.072 335.367,276.359 335.799,276.860 336.300 " stroke="none" fill="#f4cc2c" fill-rule="evenodd"></path><path id="path2" d="M38.938 17.817 C 38.808 18.157,38.801 18.535,38.924 18.657 C 39.274 19.008,40.000 18.413,40.000 17.776 C 40.000 17.009,39.237 17.038,38.938 17.817 M360.190 17.615 C 359.787 18.268,360.683 19.077,361.217 18.543 C 361.506 18.254,361.456 17.978,361.053 17.644 C 360.623 17.287,360.398 17.280,360.190 17.615 M115.062 91.100 C 114.960 91.265,130.912 91.353,150.512 91.296 C 177.149 91.218,186.220 91.308,186.433 91.654 C 186.591 91.908,187.019 92.002,187.385 91.861 C 189.826 90.924,185.606 90.800,151.400 90.800 C 131.516 90.800,115.164 90.935,115.062 91.100 M213.398 91.203 C 213.036 91.789,214.372 92.188,214.907 91.653 C 215.572 90.988,286.269 91.007,286.491 91.672 C 286.675 92.225,288.000 91.822,288.000 91.213 C 288.000 90.646,213.749 90.636,213.398 91.203 M264.204 151.993 C 263.909 152.471,264.283 153.200,264.824 153.200 C 265.310 153.200,265.313 152.117,264.828 151.817 C 264.623 151.691,264.342 151.770,264.204 151.993 M62.879 152.436 C 63.112 153.138,86.400 153.504,86.400 152.806 C 86.400 152.541,82.522 152.400,75.233 152.400 C 69.091 152.400,63.756 152.281,63.378 152.136 C 62.895 151.951,62.747 152.040,62.879 152.436 M113.690 152.737 C 113.800 153.273,136.014 153.486,136.866 152.959 C 137.902 152.319,136.108 152.200,125.390 152.200 C 115.719 152.200,113.600 152.297,113.690 152.737 M286.862 152.575 C 286.938 152.942,287.180 153.233,287.400 153.221 C 287.994 153.190,287.885 152.295,287.262 152.087 C 286.925 151.975,286.775 152.158,286.862 152.575 M124.100 336.562 C 123.977 336.761,124.084 336.795,124.338 336.638 C 124.612 336.469,124.800 336.607,124.800 336.976 C 124.800 337.675,125.421 337.814,125.800 337.200 C 126.159 336.619,275.600 336.648,275.600 337.229 C 275.600 337.465,275.915 337.598,276.300 337.524 C 276.685 337.450,277.000 337.165,277.000 336.891 C 277.000 336.283,124.475 335.955,124.100 336.562 M38.862 381.821 C 38.938 382.213,39.242 382.614,39.538 382.713 C 39.882 382.828,40.027 382.635,39.938 382.179 C 39.862 381.787,39.558 381.386,39.262 381.287 C 38.918 381.172,38.773 381.365,38.862 381.821 M360.500 381.487 C 359.936 381.690,359.810 382.800,360.351 382.800 C 360.875 382.800,361.688 381.699,361.319 381.490 C 361.144 381.390,360.775 381.389,360.500 381.487 " stroke="none" fill="#d094a6" fill-rule="evenodd"></path><path id="path3" d="M124.190 289.615 C 123.807 290.235,124.486 290.842,125.122 290.448 C 125.535 290.193,125.521 290.033,125.055 289.645 C 124.624 289.288,124.398 289.280,124.190 289.615 M276.190 289.615 C 275.787 290.268,276.683 291.077,277.217 290.543 C 277.506 290.254,277.456 289.978,277.053 289.644 C 276.623 289.287,276.398 289.280,276.190 289.615 M124.168 312.452 C 123.736 313.151,124.618 313.702,125.147 313.064 C 125.519 312.616,125.492 312.444,125.023 312.264 C 124.694 312.138,124.310 312.223,124.168 312.452 M186.988 312.420 C 186.607 313.035,187.128 313.432,187.642 312.918 C 187.929 312.631,187.936 312.407,187.662 312.239 C 187.439 312.100,187.135 312.182,186.988 312.420 M276.200 312.400 C 275.769 313.097,276.408 313.692,277.031 313.174 C 277.339 312.918,277.493 312.550,277.372 312.355 C 277.080 311.883,276.506 311.905,276.200 312.400 " stroke="none" fill="#b85c78" fill-rule="evenodd"></path><path id="path4" d="M40.000 17.500 C 40.000 17.665,112.000 17.800,200.000 17.800 C 288.000 17.800,360.000 17.665,360.000 17.500 C 360.000 17.335,288.000 17.200,200.000 17.200 C 112.000 17.200,40.000 17.335,40.000 17.500 M38.667 19.067 C 38.215 19.518,38.348 380.721,38.800 381.000 C 39.066 381.165,39.200 320.737,39.200 200.024 C 39.200 100.351,39.140 18.800,39.067 18.800 C 38.993 18.800,38.813 18.920,38.667 19.067 M360.800 200.000 C 360.800 320.533,360.934 381.200,361.200 381.200 C 361.466 381.200,361.600 320.533,361.600 200.000 C 361.600 79.467,361.466 18.800,361.200 18.800 C 360.934 18.800,360.800 79.467,360.800 200.000 M63.100 41.232 C 62.145 41.788,61.996 152.366,62.948 153.157 C 63.337 153.480,66.855 153.582,75.031 153.506 L 86.564 153.400 86.842 152.400 C 86.995 151.850,87.138 131.825,87.160 107.899 L 87.200 64.399 200.700 64.499 L 314.200 64.600 314.400 108.400 L 314.600 152.200 325.800 152.400 C 331.960 152.510,337.135 152.544,337.300 152.476 C 338.103 152.146,337.632 41.645,336.826 41.214 C 335.754 40.640,64.085 40.658,63.100 41.232 M337.000 96.800 L 337.000 151.800 326.000 151.800 L 315.000 151.800 314.800 108.000 L 314.600 64.200 200.600 64.200 L 86.600 64.200 86.498 108.706 L 86.397 153.212 74.698 153.106 L 63.000 153.000 62.896 97.800 C 62.838 67.440,62.878 42.375,62.983 42.099 C 63.137 41.700,90.768 41.619,200.088 41.699 L 337.000 41.800 337.000 96.800 M114.667 90.667 C 114.520 90.813,114.443 104.718,114.496 121.567 L 114.592 152.200 114.796 121.600 L 115.000 91.000 151.462 91.000 C 171.516 91.000,187.840 90.865,187.738 90.700 C 187.509 90.329,115.037 90.296,114.667 90.667 M232.270 90.700 C 242.208 90.759,258.588 90.759,268.670 90.700 C 278.751 90.640,270.620 90.592,250.600 90.592 C 230.580 90.592,222.331 90.640,232.270 90.700 M186.700 92.233 C 186.535 92.398,186.400 141.914,186.400 202.269 L 186.400 312.005 156.100 311.903 L 125.800 311.800 125.693 301.300 L 125.587 290.800 144.681 290.800 L 163.775 290.800 164.687 289.738 L 165.600 288.676 165.600 202.013 L 165.600 115.350 164.478 114.275 L 163.356 113.200 150.466 113.200 C 140.518 113.200,137.533 113.314,137.391 113.700 C 137.290 113.975,137.160 122.930,137.103 133.600 L 137.000 153.000 125.800 153.210 L 114.600 153.419 125.651 153.510 C 134.488 153.582,136.791 153.493,137.147 153.064 C 137.457 152.690,137.624 146.651,137.696 133.164 L 137.800 113.800 150.494 113.694 C 162.759 113.592,163.216 113.616,163.994 114.394 C 165.166 115.566,165.281 288.229,164.111 289.595 C 163.439 290.380,162.963 290.400,144.591 290.400 C 130.478 290.400,125.640 290.520,125.280 290.880 C 124.597 291.563,124.597 311.237,125.280 311.920 C 125.645 312.285,133.074 312.400,156.272 312.400 L 186.785 312.400 187.002 311.500 C 187.339 310.101,187.039 91.895,186.700 92.233 M214.400 202.100 L 214.600 312.200 245.400 312.200 L 276.200 312.200 276.200 301.400 L 276.200 290.600 257.222 290.496 C 238.383 290.393,238.236 290.386,237.322 289.526 L 236.400 288.661 236.407 202.030 L 236.414 115.400 237.363 114.500 C 238.307 113.606,238.392 113.600,250.956 113.600 L 263.600 113.600 263.600 132.576 C 263.600 144.796,263.742 151.641,264.000 151.800 C 264.623 152.185,264.543 114.303,263.920 113.680 C 263.567 113.327,260.051 113.200,250.590 113.200 L 237.739 113.200 236.870 114.126 L 236.000 115.052 236.013 202.026 C 236.024 278.977,236.095 289.092,236.630 289.800 C 237.216 290.576,237.824 290.606,256.517 290.800 L 275.800 291.000 275.800 301.400 L 275.800 311.800 245.400 311.800 L 215.000 311.800 214.899 201.900 C 214.844 141.455,214.664 92.000,214.499 92.000 C 214.335 92.000,214.290 141.545,214.400 202.100 M286.400 122.000 L 286.400 152.000 275.800 152.000 C 269.970 152.000,265.200 152.135,265.200 152.300 C 265.199 152.465,270.104 152.510,276.100 152.400 L 287.000 152.200 287.103 122.100 C 287.171 102.106,287.070 92.000,286.803 92.000 C 286.536 92.000,286.400 102.141,286.400 122.000 M126.000 336.000 C 126.000 336.265,151.200 336.400,200.800 336.400 C 250.400 336.400,275.600 336.265,275.600 336.000 C 275.600 335.735,250.400 335.600,200.800 335.600 C 151.200 335.600,126.000 335.735,126.000 336.000 M124.800 347.771 C 124.800 356.485,124.890 358.033,125.429 358.571 C 126.321 359.464,275.218 359.543,275.958 358.651 C 276.280 358.263,276.380 355.061,276.300 347.751 L 276.186 337.400 276.093 347.900 L 276.000 358.400 200.800 358.400 L 125.600 358.400 125.600 348.000 C 125.600 341.333,125.456 337.600,125.200 337.600 C 124.944 337.600,124.800 341.257,124.800 347.771 M40.000 382.500 C 40.000 382.665,112.000 382.800,200.000 382.800 C 288.000 382.800,360.000 382.665,360.000 382.500 C 360.000 382.335,288.000 382.200,200.000 382.200 C 112.000 382.200,40.000 382.335,40.000 382.500 " stroke="none" fill="#d8e860" fill-rule="evenodd"></path></g></svg>