<svg xmlns="http://www.w3.org/2000/svg" width="400" height="400"><g fill-rule="evenodd"><path d="M0 200v200h400V0H0v200M361.152 17.742c.64.772.639 363.746-.002 364.518-.787.948-321.873.789-322.263-.16-.376-.916-.375-363.285.001-364.201.389-.948 321.477-1.105 322.264-.157M63.067 41.866c-.522.522-.311 109.53.213 110.054.351.351 3.528.48 11.798.48h11.318l.102-44.1.102-44.1h228l.2 43.8.2 43.8h22v-110l-136.833-.101c-75.258-.055-136.953.02-137.1.167M114.984 91.7c-.105.275-.144 14-.087 30.5l.103 30 10.646.106c8.573.086 10.733.001 11.096-.436.316-.381.481-6.179.554-19.506l.104-18.964 12.972-.106 12.972-.105 1.128 1.08 1.128 1.081v173.342l-.829 1.054-.829 1.054H125.587l.106 10.5.107 10.5 30.299.103 30.298.102.102-110.003c.055-60.501.041-110.182-.032-110.402-.215-.643-71.237-.543-71.483.1m100.001 0c-.104.275-.144 49.91-.087 110.3L215 311.8h60.8V291l-19.283-.2c-18.693-.194-19.301-.224-19.887-1-.535-.708-.606-10.829-.617-87.83L236 114.939l.926-.869c1.156-1.087 26.14-1.395 27.021-.334.309.373.477 6.257.549 19.3l.104 18.764 10.9.106 10.9.107V91.2h-35.613c-28.122 0-35.652.105-35.802.5m-89.118 245.367c-.147.146-.267 5.006-.267 10.8V358.4H276v-10.167c0-5.592-.109-10.452-.243-10.8-.253-.661-149.232-1.025-149.89-.366" fill="#fbfbfb"/><path d="M39.862 18.331c-1.084 1.198-1.015 362.426.069 363.407 1.003.907 318.975 1.012 320.169.105 1.118-.848 1.086-362.569-.031-363.581-1.198-1.084-319.226-1.015-320.207.069m296.964 22.883c.806.431 1.277 110.932.474 111.262-.165.068-5.34.034-11.5-.076l-11.2-.2-.2-43.8-.2-43.8-113.5-.101-113.5-.1-.04 43.5c-.022 23.926-.165 43.951-.318 44.501l-.278 1-11.533.106c-8.176.076-11.694-.026-12.083-.349-.952-.791-.803-111.369.152-111.925.985-.574 272.654-.592 273.726-.018M187.871 91.04c.135.353.04.768-.211.923-.786.486-.845 219.846-.06 220.361.473.31.497.501.113.901-.392.41-.537.379-.743-.158-.377-.984-60.969-1.033-61.784-.05-.374.451-.63.498-.949.173-.317-.322-.272-.574.163-.917.506-.399.6-2.105.6-10.873 0-8.768-.094-10.474-.6-10.873-.435-.343-.48-.595-.163-.917.319-.325.575-.278.949.173.907 1.093 37.982.914 38.925-.188 1.17-1.366 1.055-174.029-.117-175.201-.778-.778-1.235-.802-13.5-.7l-12.694.106-.104 19.364c-.072 13.487-.239 19.526-.549 19.9-.753.907-23.081.774-23.432-.14-.144-.377-.05-.746.213-.833.357-.119.472-7.58.472-30.658 0-16.775.12-30.62.267-30.766.662-.663 72.948-.294 73.204.373m99.969-.133c.169.168.094.519-.167.78-.688.688-.682 59.944.007 60.633.366.366.369.591.013.947s-.528.308-.723-.2c-.373-.973-20.979-1.021-21.784-.05-1.263 1.521-1.385-.098-1.5-19.837l-.115-19.58h-12.629c-12.549 0-12.635.006-13.579.9l-.949.9-.007 86.574-.007 86.574.87.926.869.926h18.888c17.006 0 18.912-.064 19.135-.645.207-.54.351-.56.879-.121.575.477.574.565-.005.989-.97.709-.961 21.167.009 21.539.54.207.56.351.121.879-.477.575-.565.574-.989-.005-.559-.764-61.107-.996-61.577-.236-.374.605-1 .479-1-.2 0-.33.18-.6.4-.6.766 0 .53-219.394-.236-220.03-1.862-1.545-.805-1.587 37.288-1.476 20.065.058 36.619.244 36.788.413M276.86 336.3c.389.389.393.607.02.98-.348.348-.48 3.289-.48 10.72 0 7.431-.132 10.372-.48 10.72-.829.829-149.66.683-150.491-.149-.539-.538-.629-2.097-.629-10.92 0-7.31-.135-10.426-.467-10.758-.356-.356-.332-.51.1-.648.312-.1.837-.272 1.167-.383 1.472-.495 150.759-.063 151.26.438" fill="#f4cc2c"/><path d="M38.938 17.817c-.13.34-.137.718-.014.84.35.351 1.076-.244 1.076-.881 0-.767-.763-.738-1.062.041m321.252-.202c-.403.653.493 1.462 1.027.928.289-.289.239-.565-.164-.899-.43-.357-.655-.364-.863-.029M115.062 91.1c-.102.165 15.85.253 35.45.196 26.637-.078 35.708.012 35.921.358.158.254.586.348.952.207 2.441-.937-1.779-1.061-35.985-1.061-19.884 0-36.236.135-36.338.3m98.336.103c-.362.586.974.985 1.509.45.665-.665 71.362-.646 71.584.019.184.553 1.509.15 1.509-.459 0-.567-74.251-.577-74.602-.01m50.806 60.79c-.295.478.079 1.207.62 1.207.486 0 .489-1.083.004-1.383-.205-.126-.486-.047-.624.176m-201.325.443c.233.702 23.521 1.068 23.521.37 0-.265-3.878-.406-11.167-.406-6.142 0-11.477-.119-11.855-.264-.483-.185-.631-.096-.499.3m50.811.301c.11.536 22.324.749 23.176.222 1.036-.64-.758-.759-11.476-.759-9.671 0-11.79.097-11.7.537m173.172-.162c.076.367.318.658.538.646.594-.031.485-.926-.138-1.134-.337-.112-.487.071-.4.488M124.1 336.562c-.123.199-.016.233.238.076.274-.169.462-.031.462.338 0 .699.621.838 1 .224.359-.581 149.8-.552 149.8.029 0 .236.315.369.7.295.385-.074.7-.359.7-.633 0-.608-152.525-.936-152.9-.329m-85.238 45.259c.076.392.38.793.676.892.344.115.489-.078.4-.534-.076-.392-.38-.793-.676-.892-.344-.115-.489.078-.4.534m321.638-.334c-.564.203-.69 1.313-.149 1.313.524 0 1.337-1.101.968-1.31-.175-.1-.544-.101-.819-.003" fill="#d094a6"/><path d="M124.19 289.615c-.383.62.296 1.227.932.833.413-.255.399-.415-.067-.803-.431-.357-.657-.365-.865-.03m152 0c-.403.653.493 1.462 1.027.928.289-.289.239-.565-.164-.899-.43-.357-.655-.364-.863-.029m-152.022 22.837c-.432.699.45 1.25.979.612.372-.448.345-.62-.124-.8-.329-.126-.713-.041-.855.188m62.82-.032c-.381.615.14 1.012.654.498.287-.287.294-.511.02-.679-.223-.139-.527-.057-.674.181m89.212-.02c-.431.697.208 1.292.831.774.308-.256.462-.624.341-.819-.292-.472-.866-.45-1.172.045" fill="#b85c78"/><path d="M40 17.5c0 .165 72 .3 160 .3s160-.135 160-.3c0-.165-72-.3-160-.3s-160 .135-160 .3m-1.333 1.567c-.452.451-.319 361.654.133 361.933.266.165.4-60.263.4-180.976 0-99.673-.06-181.224-.133-181.224-.074 0-.254.12-.4.267M360.8 200c0 120.533.134 181.2.4 181.2s.4-60.667.4-181.2c0-120.533-.134-181.2-.4-181.2s-.4 60.667-.4 181.2M63.1 41.232c-.955.556-1.104 111.134-.152 111.925.389.323 3.907.425 12.083.349l11.533-.106.278-1c.153-.55.296-20.575.318-44.501l.04-43.5 113.5.1 113.5.101.2 43.8.2 43.8 11.2.2c6.16.11 11.335.144 11.5.076.803-.33.332-110.831-.474-111.262-1.072-.574-272.741-.556-273.726.018M337 96.8v55h-22l-.2-43.8-.2-43.8h-228l-.102 44.506-.101 44.506-11.699-.106L63 153l-.104-55.2c-.058-30.36-.018-55.425.087-55.701.154-.399 27.785-.48 137.105-.4L337 41.8v55m-222.333-6.133c-.147.146-.224 14.051-.171 30.9l.096 30.633.204-30.6L115 91h36.462c20.054 0 36.378-.135 36.276-.3-.229-.371-72.701-.404-73.071-.033m117.603.033c9.938.059 26.318.059 36.4 0 10.081-.06 1.95-.108-18.07-.108s-28.269.048-18.33.108m-45.57 1.533c-.165.165-.3 49.681-.3 110.036v109.736l-30.3-.102-30.3-.103-.107-10.5-.106-10.5h38.188l.912-1.062.913-1.062V115.35l-1.122-1.075-1.122-1.075h-12.89c-9.948 0-12.933.114-13.075.5-.101.275-.231 9.23-.288 19.9L137 153l-11.2.21-11.2.209 11.051.091c8.837.072 11.14-.017 11.496-.446.31-.374.477-6.413.549-19.9l.104-19.364 12.694-.106c12.265-.102 12.722-.078 13.5.7 1.172 1.172 1.287 173.835.117 175.201-.672.785-1.148.805-19.52.805-14.113 0-18.951.12-19.311.48-.683.683-.683 20.357 0 21.04.365.365 7.794.48 30.992.48h30.513l.217-.9c.337-1.399.037-219.605-.302-219.267M214.4 202.1l.2 110.1h61.6v-21.6l-18.978-.104c-18.839-.103-18.986-.11-19.9-.97l-.922-.865.007-86.631.007-86.63.949-.9c.944-.894 1.029-.9 13.593-.9H263.6v18.976c0 12.22.142 19.065.4 19.224.623.385.543-37.497-.08-38.12-.353-.353-3.869-.48-13.33-.48h-12.851l-.869.926-.87.926.013 86.974c.011 76.951.082 87.066.617 87.774.586.776 1.194.806 19.887 1l19.283.2v20.8H215l-.101-109.9c-.055-60.445-.235-109.9-.4-109.9-.164 0-.209 49.545-.099 110.1m72-80.1v30h-10.6c-5.83 0-10.6.135-10.6.3-.001.165 4.904.21 10.9.1l10.9-.2.103-30.1c.068-19.994-.033-30.1-.3-30.1s-.403 10.141-.403 30M126 336c0 .265 25.2.4 74.8.4 49.6 0 74.8-.135 74.8-.4s-25.2-.4-74.8-.4c-49.6 0-74.8.135-74.8.4m-1.2 11.771c0 8.714.09 10.262.629 10.8.892.893 149.789.972 150.529.08.322-.388.422-3.59.342-10.9l-.114-10.351-.093 10.5-.093 10.5H125.6V348c0-6.667-.144-10.4-.4-10.4s-.4 3.657-.4 10.171M40 382.5c0 .165 72 .3 160 .3s160-.135 160-.3c0-.165-72-.3-160-.3s-160 .135-160 .3" fill="#d8e860"/></g></svg>