<svg xmlns="http://www.w3.org/2000/svg" width="256" height="256" xml:space="preserve"><g><g style="stroke:none;stroke-width:0;stroke-dasharray:none;stroke-linecap:butt;stroke-linejoin:miter;stroke-miterlimit:10;fill:none;fill-rule:nonzero;opacity:1"><path d="M63.706 26.858c.371-1.872-.02-3.714-1.099-5.188-1.079-1.474-2.718-2.403-4.615-2.614-1.869-.207-3.749.306-5.308 1.447L21.12 43.616l.155-8.133c.035-1.84-.664-3.542-1.97-4.794-1.352-1.298-3.167-1.949-5.118-1.829-3.895.235-7.123 3.522-7.195 7.327l-.563 29.677c-.121 5.309 1.424 10.31 4.465 14.462C15.551 86.685 22.933 90 30.649 90c5.704-.001 11.592-1.813 16.691-5.548l13.231-9.69c3.254-2.382 4.099-6.785 1.882-9.813-1.072-1.463-2.694-2.387-4.573-2.607l.284-.208c1.558-1.14 2.618-2.783 2.982-4.624.371-1.872-.02-3.714-1.099-5.188-1.313-1.793-3.412-2.7-5.581-2.652 1.385-2.353 1.403-5.287-.213-7.494-1.072-1.463-2.694-2.386-4.572-2.607l11.043-8.087c1.558-1.141 2.617-2.783 2.982-4.624z" style="stroke:none;stroke-width:1;stroke-dasharray:none;stroke-linecap:butt;stroke-linejoin:miter;stroke-miterlimit:10;fill:#fbce9d;fill-rule:nonzero;opacity:1" transform="translate(1.964 1.964) scale(2.8008)"/><path d="M60.436 46.285a.999.999 0 1 1 0-1.999c11.658 0 21.143-9.485 21.143-21.144S72.094 2 60.436 2c-11.659 0-21.144 9.485-21.144 21.143a1 1 0 0 1-2 0C37.293 10.382 47.674 0 60.436 0c12.76 0 23.142 10.382 23.142 23.143 0 12.761-10.382 23.142-23.142 23.142z" style="stroke:none;stroke-width:1;stroke-dasharray:none;stroke-linecap:butt;stroke-linejoin:miter;stroke-miterlimit:10;fill:#4b6daa;fill-rule:nonzero;opacity:1" transform="translate(1.964 1.964) scale(2.8008)"/><path d="M62.84 36.673a1 1 0 0 1-.186-1.982c5.527-1.054 9.539-5.912 9.539-11.549 0-6.483-5.274-11.757-11.757-11.757a11.721 11.721 0 0 0-10.465 6.392 1 1 0 1 1-1.779-.913 13.716 13.716 0 0 1 12.244-7.478c7.586 0 13.756 6.171 13.756 13.757 0 6.596-4.695 12.279-11.164 13.513a1.011 1.011 0 0 1-.188.017z" style="stroke:none;stroke-width:1;stroke-dasharray:none;stroke-linecap:butt;stroke-linejoin:miter;stroke-miterlimit:10;fill:#4b6daa;fill-rule:nonzero;opacity:1" transform="translate(1.964 1.964) scale(2.8008)"/></g></g></svg>