<svg xmlns="http://www.w3.org/2000/svg" width="400" height="116.48"><path d="M0 46.56v46.56l32.12-.009 32.12-.008 12.527-16.315 12.528-16.314 12.592 16.315 12.593 16.315 1.72.008c.946.004 1.72-.029 1.72-.074 0-.046-5.944-7.757-13.209-17.137S91.424 58.723 91.33 58.571c-.145-.231 1.782-2.854 12.008-16.343 6.7-8.838 12.181-16.125 12.181-16.194.001-.069-.734-.105-1.631-.08l-1.633.046-11.423 15.04c-6.283 8.272-11.47 15.054-11.527 15.072-.058.017-5.145-6.769-11.305-15.08L66.8 25.921l-1.737-.001c-1.498 0-1.724.034-1.643.246.052.136 5.5 7.413 12.107 16.172 6.606 8.76 11.989 15.993 11.962 16.073-.264.79-25.176 32.682-25.219 32.287l-.05-.458H2.72V45.92h55.52V43.2H2.72V2.72h59.04V0H0v46.56m148.8-21.906c-10.579 1.362-18.932 8.312-22.577 18.786l-.445 1.28-.009-9.4-.009-9.4h-2.88V116h2.88l.009-20.84.008-20.84.38 1.28c3.106 10.468 11.181 17.236 22.243 18.644 18.725 2.382 32.057-11.201 32.824-33.444.796-23.083-13.148-38.627-32.424-36.146m67.324.071c-9.924 1.353-17.026 7.07-19.917 16.032l-.607 1.883-.041-8.36-.042-8.36H192.8v67.2h2.701l.062-20.52c.056-18.183.093-20.73.332-22.36 2.071-14.15 10.673-22.654 23.265-22.999l2.92-.08V24.48l-2.2.016c-1.21.01-2.9.112-3.756.229m31.956.003c-18.213 2.75-28.67 21.934-24.554 45.047 2.565 14.405 10.818 23.045 23.369 24.467 17.606 1.994 30.952-7.046 33.424-22.642a51.39 51.39 0 0 1 .252-1.48c.073-.352.043-.36-1.331-.36h-1.405l-.363 1.852c-2.592 13.23-12.517 20.675-26.903 20.182-15.368-.526-24.126-10.852-25.073-29.56l-.105-2.074h56.1l-.104-2.92c-.774-21.924-14.526-35.347-33.307-32.512m61.04-.08c-12.618 1.542-19.59 9.52-17.861 20.437 1.29 8.143 4.452 10.054 25.209 15.235 7.992 1.995 9.549 2.464 11.983 3.609 6.278 2.952 9.063 7.451 8.489 13.712-.788 8.607-9.214 14.097-21.66 14.113-15.308.019-23.491-6.666-24.035-19.634l-.092-2.2h-2.874l.109 1.8c.946 15.638 9.229 22.668 26.732 22.687 14.884.017 23.94-6.363 24.658-17.37.444-6.818-2.423-11.753-8.722-15.01-2.771-1.433-5.433-2.248-17.856-5.468-14.357-3.721-17.544-5.58-18.974-11.069-2.459-9.442 4.274-17.112 15.934-18.15 15.271-1.359 25.029 5.461 25.039 17.5l.001 1.08h2.72v-1.459c0-10.802-6.186-17.563-17.922-19.59-1.785-.308-8.974-.455-10.878-.223m60.32.011c-12.859 1.479-19.92 9.8-17.817 20.997 1.457 7.76 4.835 9.683 26.311 14.971 12.909 3.18 17.368 5.986 18.958 11.933 3.122 11.679-8.446 20.571-24.892 19.135-13.203-1.153-19.829-7.565-20.56-19.895l-.112-1.88h-2.688V71c.002 15.422 9.15 23.401 26.841 23.409 15.101.008 24.147-6.56 24.474-17.769.182-6.279-1.677-10.134-6.417-13.304-3.476-2.326-5.505-3.009-20.338-6.849-14.453-3.742-17.625-5.714-18.867-11.73-2.318-11.221 7.83-18.866 23.107-17.409 11.197 1.068 17.101 6.446 17.95 16.352l.19 2.22h2.709l-.1-1.96c-.478-9.343-4.666-15.093-13.018-17.873-4.251-1.415-10.727-2.003-15.731-1.428m-211.927 2.942c14.837 2.702 23.625 19.787 20.308 39.482-2.812 16.702-13.633 26.134-28.232 24.611-14.804-1.546-23.423-12.713-23.782-30.814-.438-22.04 13.439-36.605 31.706-33.279m97.973-.232c13.477 1.462 23.074 13.42 23.074 28.75v1.321h-53.161l.115-1.48c1.423-18.357 13.972-30.328 29.972-28.591" fill-rule="evenodd"/></svg>