<svg xmlns="http://www.w3.org/2000/svg" width="256" height="256" xml:space="preserve"><g style="stroke:none;stroke-width:0;stroke-dasharray:none;stroke-linecap:butt;stroke-linejoin:miter;stroke-miterlimit:10;fill:none;fill-rule:nonzero;opacity:1"><path d="M51.992 83.008C51.992 86.87 48.862 90 45 90s-6.992-3.13-6.992-6.992a39.862 39.862 0 0 1 13.984 0z" style="stroke:none;stroke-width:1;stroke-dasharray:none;stroke-linecap:butt;stroke-linejoin:miter;stroke-miterlimit:10;fill:#bfbfbf;fill-rule:nonzero;opacity:1" transform="translate(1.964 1.964) scale(2.8008)"/><path d="M32.899 63.955c.104.656.166 1.321.166 1.991v14.446a2.617 2.617 0 0 0 2.617 2.617h18.635a2.617 2.617 0 0 0 2.617-2.617V65.72c0-.594.056-1.183.143-1.765-8.054-2.357-16.113-2.354-24.178 0z" style="stroke:none;stroke-width:1;stroke-dasharray:none;stroke-linecap:butt;stroke-linejoin:miter;stroke-miterlimit:10;fill:#777;fill-rule:nonzero;opacity:1" transform="translate(1.964 1.964) scale(2.8008)"/><path d="M56.654 77.146H33.347a3.876 3.876 0 0 1-3.864-3.864 3.876 3.876 0 0 1 3.864-3.864h23.307a3.876 3.876 0 0 1 3.864 3.864 3.875 3.875 0 0 1-3.864 3.864z" style="stroke:none;stroke-width:1;stroke-dasharray:none;stroke-linecap:butt;stroke-linejoin:miter;stroke-miterlimit:10;fill:#bfbfbf;fill-rule:nonzero;opacity:1" transform="translate(1.964 1.964) scale(2.8008)"/><path d="M32.899 63.955h24.178c.35-2.357 1.388-4.577 3.077-6.288a21.209 21.209 0 0 0 6.127-14.94c0-12.551-10.866-22.565-23.704-21.147-10.058 1.111-18.033 9.404-18.795 19.495a21.23 21.23 0 0 0 6.004 16.53c1.695 1.734 2.738 3.973 3.113 6.35z" style="stroke:none;stroke-width:1;stroke-dasharray:none;stroke-linecap:butt;stroke-linejoin:miter;stroke-miterlimit:10;fill:#ffd310;fill-rule:nonzero;opacity:1" transform="translate(1.964 1.964) scale(2.8008)"/><path d="M39.937 55.762c-.251 0-.505-.049-.751-.151a15.056 15.056 0 0 1-6.565-5.266 15.052 15.052 0 0 1-2.699-7.902 1.958 1.958 0 1 1 3.913-.193c.104 2.11.794 4.132 1.995 5.848a11.134 11.134 0 0 0 4.859 3.896 1.959 1.959 0 0 1-.752 3.768zm18.157-12.715a1.959 1.959 0 0 1-1.955-1.871 11.138 11.138 0 0 0-1.999-5.899 11.123 11.123 0 0 0-4.813-3.875 1.958 1.958 0 1 1 1.519-3.61 15.038 15.038 0 0 1 6.503 5.239 15.054 15.054 0 0 1 2.703 7.97 1.959 1.959 0 0 1-1.869 2.045l-.089.001z" style="stroke:none;stroke-width:1;stroke-dasharray:none;stroke-linecap:butt;stroke-linejoin:miter;stroke-miterlimit:10;fill:#ffe988;fill-rule:nonzero;opacity:1" transform="translate(1.964 1.964) scale(2.8008)"/><path d="M85.388 44.305H74.146a1.959 1.959 0 1 1 0-3.918h11.241a1.959 1.959 0 0 1 .001 3.918zm-69.533 0H4.612a1.959 1.959 0 1 1 0-3.918h11.242a1.959 1.959 0 0 1 .001 3.918zM45 15.159a1.959 1.959 0 0 1-1.959-1.959V1.959a1.96 1.96 0 0 1 3.918 0v11.242A1.959 1.959 0 0 1 45 15.159zm20.609 8.537a1.959 1.959 0 0 1-1.385-3.344l7.95-7.95a1.959 1.959 0 1 1 2.77 2.77l-7.95 7.95a1.949 1.949 0 0 1-1.385.574zm-41.218 0a1.95 1.95 0 0 1-1.385-.574l-7.949-7.95a1.959 1.959 0 1 1 2.77-2.77l7.949 7.95a1.959 1.959 0 0 1-1.385 3.344z" style="stroke:none;stroke-width:1;stroke-dasharray:none;stroke-linecap:butt;stroke-linejoin:miter;stroke-miterlimit:10;fill:#ffd310;fill-rule:nonzero;opacity:1" transform="translate(1.964 1.964) scale(2.8008)"/></g></svg>