<svg xmlns="http://www.w3.org/2000/svg" width="256" height="256" xml:space="preserve"><g style="stroke:none;stroke-width:0;stroke-dasharray:none;stroke-linecap:butt;stroke-linejoin:miter;stroke-miterlimit:10;fill:none;fill-rule:nonzero;opacity:1" transform="translate(1.964 1.964) scale(2.8008)"><circle cx="44.997" cy="49.797" r="36.727" style="stroke:none;stroke-width:1;stroke-dasharray:none;stroke-linecap:butt;stroke-linejoin:miter;stroke-miterlimit:10;fill:#f1f1f1;fill-rule:nonzero;opacity:1"/><path d="M38.223 13.07c-.556 0-1.106.018-1.657.037 20.246.777 36.415 16.902 36.415 36.689s-16.169 35.912-36.415 36.69c.55.02 1.101.037 1.657.037 22.715 0 41.129-16.443 41.129-36.727S60.938 13.07 38.223 13.07z" style="stroke:none;stroke-width:1;stroke-dasharray:none;stroke-linecap:butt;stroke-linejoin:miter;stroke-miterlimit:10;fill:#dbdbdb;fill-rule:nonzero;opacity:1"/><path d="m74.232 22.238 2.668-3.23a4.841 4.841 0 0 0 1.097-3.568 4.84 4.84 0 0 0-1.748-3.297l-2.625-2.169a4.841 4.841 0 0 0-3.569-1.096 4.85 4.85 0 0 0-3.298 1.749l-2.997 3.628a39.91 39.91 0 0 0-8.759-3.401V6.419A6.427 6.427 0 0 0 48.582 0h-7.164A6.426 6.426 0 0 0 35 6.419v4.434C17.654 15.309 4.796 31.079 4.796 49.796 4.796 71.965 22.832 90 45 90s40.204-18.035 40.204-40.204c0-10.659-4.178-20.355-10.972-27.558zM45 83.045c-18.334 0-33.249-14.916-33.249-33.249 0-18.334 14.915-33.249 33.249-33.249s33.249 14.915 33.249 33.249c0 18.334-14.915 33.249-33.249 33.249z" style="stroke:none;stroke-width:1;stroke-dasharray:none;stroke-linecap:butt;stroke-linejoin:miter;stroke-miterlimit:10;fill:#57595d;fill-rule:nonzero;opacity:1"/><circle cx="17.221" cy="49.671" r="2.741" style="stroke:none;stroke-width:1;stroke-dasharray:none;stroke-linecap:butt;stroke-linejoin:miter;stroke-miterlimit:10;fill:#dbdbdb;fill-rule:nonzero;opacity:1"/><circle cx="45.041" cy="21.851" r="2.741" style="stroke:none;stroke-width:1;stroke-dasharray:none;stroke-linecap:butt;stroke-linejoin:miter;stroke-miterlimit:10;fill:#dbdbdb;fill-rule:nonzero;opacity:1"/><circle cx="45.041" cy="77.491" r="2.741" style="stroke:none;stroke-width:1;stroke-dasharray:none;stroke-linecap:butt;stroke-linejoin:miter;stroke-miterlimit:10;fill:#dbdbdb;fill-rule:nonzero;opacity:1"/><circle cx="72.861" cy="49.671" r="2.741" style="stroke:none;stroke-width:1;stroke-dasharray:none;stroke-linecap:butt;stroke-linejoin:miter;stroke-miterlimit:10;fill:#dbdbdb;fill-rule:nonzero;opacity:1"/><path d="M27.128 77.789c-9.232-5.913-15.377-16.24-15.377-27.993 0-11.954 6.352-22.436 15.848-28.296a88.07 88.07 0 0 1 3.049-9.253C15.548 18.04 4.796 32.683 4.796 49.796c0 16.848 10.424 31.294 25.156 37.263a91.232 91.232 0 0 1-2.824-9.27z" style="stroke:none;stroke-width:1;stroke-dasharray:none;stroke-linecap:butt;stroke-linejoin:miter;stroke-miterlimit:10;fill:#3f4042;fill-rule:nonzero;opacity:1"/><circle cx="45.041" cy="49.671" r="2.741" style="stroke:none;stroke-width:1;stroke-dasharray:none;stroke-linecap:butt;stroke-linejoin:miter;stroke-miterlimit:10;fill:#3f4042;fill-rule:nonzero;opacity:1"/><path d="M45.042 49.796c.635-.625 1.269-1.068 1.904-1.515.635.03 1.269.008 1.904.015h9.518c.635.456 1.269.899 1.904 1.5-.635.601-1.269 1.044-1.904 1.5H48.85c-.635.007-1.269-.015-1.904.015-.635-.447-1.269-.89-1.904-1.515z" style="stroke:none;stroke-width:1;stroke-dasharray:none;stroke-linecap:butt;stroke-linejoin:miter;stroke-miterlimit:10;fill:#3f4042;fill-rule:nonzero;opacity:1"/><path d="M45.042 30.82c.625.833 1.068 1.666 1.515 2.499-.03.833-.008 1.666-.015 2.499v12.495c-.456.833-.899 1.666-1.5 2.499-.601-.833-1.044-1.666-1.5-2.499V35.818c-.007-.833.015-1.666-.015-2.499.448-.833.89-1.666 1.515-2.499z" style="stroke:none;stroke-width:1;stroke-dasharray:none;stroke-linecap:butt;stroke-linejoin:miter;stroke-miterlimit:10;fill:#3f4042;fill-rule:nonzero;opacity:1"/></g></svg>